HIERARCHY
ROOT joint_0
{
	OFFSET 0.000000 0.000000 0.000000
	CHANNELS 6 Xposition Yposition Zposition Zrotation Yrotation Xrotation 
	JOINT joint_1
	{
		OFFSET 11.612000 -0.419000 106.198000
		CHANNELS 3 Zrotation Yrotation Xrotation
		JOINT joint_2
		{
			OFFSET -1.708000 -1.022000 97.564090
			CHANNELS 3 Zrotation Yrotation Xrotation
			JOINT joint_3
			{
				OFFSET -4.121000 -1.538000 97.375000
				CHANNELS 3 Zrotation Yrotation Xrotation
				JOINT joint_4
				{
					OFFSET 5.442000 -2.123000 132.795900
					CHANNELS 3 Zrotation Yrotation Xrotation
					JOINT joint_5
					{
						OFFSET 21.935000 0.195000 82.975100
						CHANNELS 3 Zrotation Yrotation Xrotation
						End Site
						{
							OFFSET 0.000000 0.000000 0.000000
						}
					}
				}
				JOINT joint_6
				{
					OFFSET 4.262000 -30.048000 73.899900
					CHANNELS 3 Zrotation Yrotation Xrotation
					JOINT joint_7
					{
						OFFSET 9.731000 -136.810010 -21.963010
						CHANNELS 3 Zrotation Yrotation Xrotation
						JOINT joint_8
						{
							OFFSET 33.360000 -35.709000 -267.597900
							CHANNELS 3 Zrotation Yrotation Xrotation
							JOINT joint_9
							{
								OFFSET 36.156000 -29.759000 -240.558040
								CHANNELS 3 Zrotation Yrotation Xrotation
								End Site
								{
									OFFSET 0.000000 0.000000 0.000000
								}
							}
						}
					}
				}
				JOINT joint_10
				{
					OFFSET 2.027000 27.734000 74.914920
					CHANNELS 3 Zrotation Yrotation Xrotation
					JOINT joint_11
					{
						OFFSET -5.183000 136.784000 -23.604980
						CHANNELS 3 Zrotation Yrotation Xrotation
						JOINT joint_12
						{
							OFFSET 29.806000 37.229000 -267.809940
							CHANNELS 3 Zrotation Yrotation Xrotation
							JOINT joint_13
							{
								OFFSET 36.890000 46.524990 -237.772030
								CHANNELS 3 Zrotation Yrotation Xrotation
								End Site
								{
									OFFSET 0.000000 0.000000 0.000000
								}
							}
						}
					}
				}
			}
		}
	}
	JOINT joint_14
	{
		OFFSET -7.290000 -102.873990 -124.314940
		CHANNELS 3 Zrotation Yrotation Xrotation
		JOINT joint_15
		{
			OFFSET -15.466000 -19.909010 -438.533020
			CHANNELS 3 Zrotation Yrotation Xrotation
			JOINT joint_16
			{
				OFFSET -26.899000 -18.922000 -464.797000
				CHANNELS 3 Zrotation Yrotation Xrotation
				JOINT joint_17
				{
					OFFSET 179.329000 -12.011000 -84.174000
					CHANNELS 3 Zrotation Yrotation Xrotation
					End Site
					{
						OFFSET 0.000000 0.000000 0.000000
					}
				}
			}
		}
	}
	JOINT joint_18
	{
		OFFSET -6.225000 101.546000 -125.479980
		CHANNELS 3 Zrotation Yrotation Xrotation
		JOINT joint_19
		{
			OFFSET -13.973000 7.996000 -438.963010
			CHANNELS 3 Zrotation Yrotation Xrotation
			JOINT joint_20
			{
				OFFSET -44.294000 5.716000 -463.813970
				CHANNELS 3 Zrotation Yrotation Xrotation
				JOINT joint_21
				{
					OFFSET 178.505000 -4.689000 -85.139000
					CHANNELS 3 Zrotation Yrotation Xrotation
					End Site
					{
						OFFSET 0.000000 0.000000 0.000000
					}
				}
			}
		}
	}
}
MOTION
Frames: 10
Frame Time: 0.016667
-3635.790039 951.973145 1126.489014 5.308235 -4.964963 0.433198 -0.872500 7.517629 -0.693090 -0.921871 -1.580796 0.120426 -0.884842 1.526578 -0.109159 0.012289 -1.009197 -0.032838 0.000000 0.000000 0.000000 -4.240677 0.821979 0.472060 0.034446 0.104705 0.025408 1.577523 -7.656133 4.104948 0.000000 0.000000 0.000000 1.254217 -0.867326 0.632503 -0.872274 -1.232544 0.547548 -2.523038 -7.424969 -6.503761 0.000000 0.000000 0.000000 -0.947706 2.711606 0.257129 -0.898220 3.027342 -1.670863 -0.746015 -2.033110 -0.484797 0.000000 0.000000 0.000000 4.570188 3.368368 -0.760961 4.470859 -1.468980 0.460387 4.365762 1.968567 2.138040 0.000000 0.000000 0.000000 
-3634.808350 952.102905 1126.461060 5.380489 -4.888320 0.435405 -0.851761 7.621702 -0.667315 -0.899812 -1.617994 0.115847 -0.861318 1.559958 -0.108877 0.016246 -1.149582 -0.045703 0.000000 0.000000 0.000000 -4.311087 0.873899 0.584413 0.014545 0.131746 -0.099242 1.580398 -7.660987 4.129424 0.000000 0.000000 0.000000 1.351013 -0.872537 0.482961 -0.862653 -1.239716 0.740938 -2.542761 -7.434366 -6.573212 0.000000 0.000000 0.000000 -1.033312 2.692574 0.250474 -0.984158 3.021640 -1.686912 -0.829293 -2.074189 -0.526504 0.000000 0.000000 0.000000 4.569922 3.307246 -0.747321 4.472900 -1.419734 0.442757 4.364568 1.957112 2.137485 0.000000 0.000000 0.000000 
-3633.183105 952.211670 1126.463013 5.472542 -4.709959 0.442587 -0.837798 7.702527 -0.632746 -0.883058 -1.636708 0.111395 -0.843480 1.579772 -0.107904 0.023847 -1.434725 -0.070947 0.000000 0.000000 0.000000 -4.425253 0.974432 0.633024 -0.006345 0.207227 -0.194449 1.603242 -7.744567 4.218282 0.000000 0.000000 0.000000 1.429759 -0.814550 0.375134 -0.851441 -1.181737 0.929049 -2.587471 -7.535532 -6.691263 0.000000 0.000000 0.000000 -1.135601 2.616044 0.227014 -1.090216 3.012187 -1.687129 -0.924696 -2.273453 -0.584488 0.000000 0.000000 0.000000 4.561810 3.172011 -0.725140 4.468408 -1.351958 0.415126 4.354391 1.800851 2.128789 0.000000 0.000000 0.000000 
-3630.497314 952.280701 1126.480957 5.603074 -4.359590 0.463252 -0.825486 7.591447 -0.610037 -0.864536 -1.540229 0.123061 -0.828185 1.503756 -0.116948 0.035359 -1.923181 -0.110553 0.000000 0.000000 0.000000 -4.691398 1.200441 0.560151 -0.028096 0.397741 -0.218181 1.661707 -7.949403 4.428685 0.000000 0.000000 0.000000 1.418973 -0.612362 0.376626 -0.832723 -0.967356 1.087272 -2.671306 -7.783921 -6.883735 0.000000 0.000000 0.000000 -1.258816 2.448142 0.172030 -1.222028 2.984600 -1.666314 -1.033564 -2.733728 -0.666272 0.000000 0.000000 0.000000 4.533450 2.903199 -0.699418 4.445614 -1.238801 0.379944 4.322556 1.377840 2.102610 0.000000 0.000000 0.000000 
-3626.918213 952.309082 1126.511963 5.767518 -3.874947 0.495839 -0.810936 7.304056 -0.594843 -0.841378 -1.334916 0.143979 -0.812085 1.336114 -0.133176 0.049900 -2.561587 -0.164103 0.000000 0.000000 0.000000 -5.104782 1.536841 0.415267 -0.051754 0.682679 -0.213084 1.749107 -8.240665 4.740529 0.000000 0.000000 0.000000 1.342786 -0.293112 0.440127 -0.805739 -0.624565 1.249338 -2.785346 -8.138369 -7.137244 0.000000 0.000000 0.000000 -1.406390 2.212646 0.094042 -1.381607 2.941626 -1.631636 -1.160856 -3.392820 -0.769993 0.000000 0.000000 0.000000 4.490089 2.525369 -0.669639 4.409884 -1.076547 0.340978 4.275127 0.748677 2.063501 0.000000 0.000000 0.000000 
-3623.002930 952.390259 1126.649048 5.921670 -3.275137 0.521792 -0.849949 7.433504 -0.511429 -0.871690 -1.328502 0.138223 -0.841452 1.347146 -0.131067 0.071167 -3.495655 -0.244285 0.000000 0.000000 0.000000 -5.230229 1.769666 0.201164 -0.071409 0.915678 -0.193977 1.849287 -8.661463 5.061921 0.000000 0.000000 0.000000 1.357204 -0.006071 0.495920 -0.792108 -0.330457 1.414896 -2.933357 -8.652471 -7.436892 0.000000 0.000000 0.000000 -1.529216 1.876513 0.003646 -1.523593 2.913190 -1.549540 -1.260967 -4.213810 -0.871840 0.000000 0.000000 0.000000 4.445268 2.106028 -0.616208 4.374014 -1.016191 0.262742 4.225176 0.046004 2.021268 0.000000 0.000000 0.000000 
-3619.360596 952.705505 1127.008057 6.033621 -2.544516 0.518952 -1.017811 8.542909 -0.236051 -1.028216 -1.735643 0.030518 -0.976290 1.717574 -0.057960 0.099312 -4.951640 -0.343181 0.000000 0.000000 0.000000 -4.622470 1.717011 -0.157100 -0.090188 0.992508 -0.159232 1.970156 -9.384780 5.378635 0.000000 0.000000 0.000000 1.666881 0.151152 0.450288 -0.811191 -0.216543 1.603734 -3.152814 -9.532400 -7.806583 0.000000 0.000000 0.000000 -1.585312 1.384112 -0.107185 -1.610931 2.914081 -1.369112 -1.292723 -5.236767 -0.955210 0.000000 0.000000 0.000000 4.409266 1.656719 -0.516403 4.348420 -1.170191 0.103540 4.181461 -0.669156 1.981721 0.000000 0.000000 0.000000 
-3615.790283 953.220154 1127.555054 6.118032 -1.668247 0.494866 -1.292415 10.334470 0.195383 -1.277144 -2.232412 -0.175256 -1.190301 2.139654 0.089957 0.129583 -6.832842 -0.426552 0.000000 0.000000 0.000000 -3.490083 1.489079 -0.744625 -0.113309 1.005098 -0.028067 2.109444 -10.389763 5.710510 0.000000 0.000000 0.000000 2.228121 0.267756 0.361388 -0.848887 -0.187884 1.763921 -3.432597 -10.749641 -8.233664 0.000000 0.000000 0.000000 -1.592532 0.737742 -0.243271 -1.660162 2.932666 -1.103582 -1.272906 -6.466658 -1.028248 0.000000 0.000000 0.000000 4.377187 1.142167 -0.378822 4.328177 -1.481765 -0.122636 4.140014 -1.435846 1.941838 0.000000 0.000000 0.000000 
-3611.156250 953.394958 1128.041016 6.186578 -0.757747 0.484144 -1.500184 11.912683 0.482417 -1.440979 -2.430480 -0.303306 -1.331026 2.285540 0.190403 0.160713 -8.568272 -0.490621 0.000000 0.000000 0.000000 -2.637186 1.312857 -1.350945 -0.112396 1.042899 0.321722 2.171313 -11.007386 5.832073 0.000000 0.000000 0.000000 2.582193 0.393775 0.501051 -0.873475 -0.127747 1.711853 -3.606003 -11.521973 -8.551134 0.000000 0.000000 0.000000 -1.593387 0.077124 -0.333863 -1.702398 2.990118 -0.880831 -1.250060 -7.614180 -1.094318 0.000000 0.000000 0.000000 4.345266 0.694101 -0.237351 4.305065 -1.886541 -0.337994 4.101406 -2.148815 1.904391 0.000000 0.000000 0.000000 
-3604.443604 952.721863 1128.319946 6.225449 0.105707 0.506222 -1.501896 12.899398 0.409145 -1.383675 -2.510229 -0.238975 -1.270448 2.338123 0.148420 0.204819 -9.977507 -0.628365 0.000000 0.000000 0.000000 -2.676132 1.278512 -1.676890 -0.039702 1.066432 0.925496 2.089761 -10.631354 5.597290 0.000000 0.000000 0.000000 2.371869 0.468742 1.077636 -0.883268 -0.043310 1.324888 -3.539383 -11.096130 -8.692102 0.000000 0.000000 0.000000 -1.612893 -0.469568 -0.310963 -1.752087 3.075773 -0.792965 -1.252425 -8.495977 -1.154362 0.000000 0.000000 0.000000 4.317349 0.478690 -0.093570 4.278339 -2.440743 -0.503651 4.072634 -2.718509 1.874728 0.000000 0.000000 0.000000 
